<svg id="Layer_2" data-name="Layer 2" xmlns="http://www.w3.org/2000/svg" viewBox="0 0 17.14 17.28"><defs><style>.cls-1{fill:#fa7a39}</style></defs><path class="cls-1" d="M11 9.5c.09 0 .45.17 1.08.5.63.33.96.53 1 .6.01.03.02.08.02.16 0 .24-.06.51-.18.82-.12.31-.39.56-.8.76-.41.2-.79.3-1.14.3-.43 0-1.13-.23-2.12-.7-.73-.33-1.37-.77-1.9-1.32S5.88 9.39 5.32 8.56c-.55-.8-.81-1.52-.8-2.16v-.1c.03-.67.3-1.25.82-1.76.19-.16.38-.24.58-.24.05 0 .12 0 .2.02.08.01.15.02.22.02.15 0 .25.02.3.06s.11.15.16.32c.07.15.19.47.38.98s.28.78.28.82c0 .16-.13.38-.38.66s-.39.45-.4.52c0 .04.02.09.06.16.25.55.63 1.05 1.14 1.52.41.4.97.78 1.68 1.14.09.05.19.08.28.08s.29-.18.58-.54c.29-.36.49-.55.58-.56zm-2.28 5.92c.95 0 1.85-.19 2.72-.56.87-.37 1.61-.87 2.24-1.48s1.13-1.36 1.5-2.24.56-1.79.56-2.72-.19-1.84-.56-2.72c-.37-.88-.87-1.63-1.5-2.24a7.714 7.714 0 0 0-2.24-1.5c-.87-.39-1.77-.57-2.72-.56s-1.85.2-2.7.56c-.85.36-1.6.86-2.24 1.5-.64.64-1.14 1.39-1.5 2.24s-.55 1.76-.56 2.72c0 1.51.45 2.87 1.34 4.1l-.88 2.6 2.7-.86c1.17.77 2.45 1.16 3.84 1.16zM8.72 0c1.15 0 2.24.23 3.28.68 1.04.45 1.93 1.05 2.68 1.78.75.73 1.35 1.63 1.8 2.7.45 1.07.67 2.15.66 3.26a8.867 8.867 0 0 1-.66 3.26c-.43 1.07-1.03 1.96-1.8 2.68-.77.72-1.67 1.32-2.68 1.8s-2.11.71-3.28.68c-1.44 0-2.79-.35-4.06-1.06L0 17.28l1.52-4.52C.72 11.44.32 9.99.32 8.42c0-1.15.22-2.23.66-3.26.44-1.03 1.04-1.93 1.8-2.7S4.43 1.09 5.46.68C6.49.27 7.57.04 8.72 0z" id="Layer_1-2" data-name="Layer 1"/></svg>